<svg width="24" height="24" viewBox="0 0 24 24" fill="none" xmlns="http://www.w3.org/2000/svg">
<circle cx="12" cy="12" r="12" fill="#FF7C3B"/>
<path d="M14.9165 6.16663H9.08317C7.47234 6.16663 6.1665 7.47246 6.1665 9.08329V14.9166C6.1665 16.5275 7.47234 17.8333 9.08317 17.8333H14.9165C16.5273 17.8333 17.8332 16.5275 17.8332 14.9166V9.08329C17.8332 7.47246 16.5273 6.16663 14.9165 6.16663Z" stroke="white" stroke-width="1.5" stroke-linecap="round" stroke-linejoin="round"/>
<path d="M14.3333 11.6324C14.4053 12.1179 14.3224 12.6137 14.0964 13.0494C13.8703 13.485 13.5127 13.8383 13.0743 14.0589C12.6359 14.2796 12.1391 14.3564 11.6545 14.2784C11.17 14.2004 10.7224 13.9716 10.3753 13.6246C10.0283 13.2776 9.7995 12.8299 9.72153 12.3454C9.64356 11.8608 9.72036 11.364 9.94102 10.9256C10.1617 10.4873 10.5149 10.1296 10.9506 9.90357C11.3862 9.67753 11.882 9.59461 12.3675 9.6666C12.8627 9.74003 13.3212 9.97079 13.6751 10.3248C14.0291 10.6788 14.2599 11.1372 14.3333 11.6324Z" stroke="white" stroke-width="1.5" stroke-linecap="round" stroke-linejoin="round"/>
<path d="M15.2085 8.79163H15.2145" stroke="white" stroke-width="2" stroke-linecap="round" stroke-linejoin="round"/>
</svg>
