<svg width="24" height="24" viewBox="0 0 24 24" fill="none" xmlns="http://www.w3.org/2000/svg">
<circle cx="12" cy="12" r="12" fill="#FF7C3B"/>
<g clip-path="url(#clip0)">
<path d="M18.4168 6.75001C17.8582 7.14403 17.2397 7.4454 16.5852 7.64251C16.2338 7.23855 15.7669 6.95224 15.2476 6.8223C14.7283 6.69235 14.1815 6.72504 13.6814 6.91594C13.1812 7.10684 12.7518 7.44674 12.4511 7.88967C12.1504 8.33261 11.993 8.8572 12.0002 9.39251V9.97584C10.975 10.0024 9.95924 9.77506 9.04325 9.31402C8.12726 8.85297 7.33951 8.17254 6.75016 7.33334C6.75016 7.33334 4.41683 12.5833 9.66683 14.9167C8.46547 15.7322 7.03434 16.141 5.5835 16.0833C10.8335 19 17.2502 16.0833 17.2502 9.37501C17.2496 9.21252 17.234 9.05044 17.2035 8.89084C17.7988 8.30371 18.219 7.56242 18.4168 6.75001V6.75001Z" stroke="white" stroke-width="1.5" stroke-linecap="round" stroke-linejoin="round"/>
</g>
<defs>
<clipPath id="clip0">
<rect width="14" height="14" fill="white" transform="translate(5 5)"/>
</clipPath>
</defs>
</svg>
